<svg xmlns="http://www.w3.org/2000/svg" viewBox="0 0 118.48 43.3"><defs><style>.cls-1{fill:#d01612;}.cls-1,.cls-2,.cls-3,.cls-4{fill-rule:evenodd;}.cls-2{fill:#e9390f;}.cls-3{fill:#ff6d15;}.cls-4,.cls-5{fill:#fc9506;}</style></defs><title>Org-Logo-5</title><g id="Laag_2" data-name="Laag 2"><g id="_ÎÓÈ_2" data-name="—ÎÓÈ_2"><path class="cls-1" d="M23.57,15.35l5.29-1.43a.25.25,0,0,1,.24.43A11.54,11.54,0,0,0,27,17a12,12,0,0,0-1.3,3.23l-1.4,5.28a.25.25,0,0,1-.49,0,11.76,11.76,0,0,0-1.25-3.19,12,12,0,0,0-2.15-2.74l-3.87-3.85a.25.25,0,0,1,.25-.42,11.63,11.63,0,0,0,3.38.51,12.15,12.15,0,0,0,3.43-.49Zm.54,2a14.43,14.43,0,0,1-2.67.5l.36.36a13.58,13.58,0,0,1,1.78,2.08l.13-.49a14.74,14.74,0,0,1,.91-2.59Z"/><path class="cls-2" d="M17.72,22.29,9.18,13.78c-3.07-3,1.54-7.67,4.6-4.6a8.75,8.75,0,0,0,8.81,2.52L34.23,8.55c4.18-1.13,5.87,5.17,1.69,6.29a8.72,8.72,0,0,0-6.59,6.37L26.24,32.86c-1.11,4.19-7.42,2.5-6.3-1.68a8.72,8.72,0,0,0-2.22-8.89Zm1.43-1.43A10.58,10.58,0,0,1,21.89,31.7a1.24,1.24,0,1,0,2.4.64l3.08-11.65a10.59,10.59,0,0,1,8-7.79,1.24,1.24,0,1,0-.64-2.4L23.11,13.65A10.58,10.58,0,0,1,12.36,10.6a1.24,1.24,0,1,0-1.76,1.76Z"/><path class="cls-3" d="M33.24,22.26,30.13,33.91A7,7,0,0,1,21.22,39a7,7,0,0,1-5.17-8.88,5,5,0,0,0-1.19-5L6.33,16.63a7,7,0,0,1,0-10.27,7,7,0,0,1,10.27,0,5,5,0,0,0,4.91,1.45L33.19,4.65a7,7,0,0,1,8.87,5.17A7,7,0,0,1,37,18.74a4.94,4.94,0,0,0-3.72,3.52Zm-2-.53a6.82,6.82,0,0,1,5.15-4.94,5,5,0,0,0,3.7-6.45A5.06,5.06,0,0,0,33.71,6.6L22.07,9.74a6.83,6.83,0,0,1-6.86-2,5.06,5.06,0,0,0-7.44,0,5.06,5.06,0,0,0,0,7.44l8.54,8.51A6.83,6.83,0,0,1,18,30.65a5.07,5.07,0,0,0,3.74,6.44,5.05,5.05,0,0,0,6.45-3.71Z"/><path class="cls-4" d="M12,28a1.21,1.21,0,0,1,.16,1.06c-1.94,7.23,2.56,12.31,8,13.78S32.09,42.18,34,35l3.14-11.64a1.24,1.24,0,0,1,.84-.68c7.24-1.94,9.39-8.37,7.92-13.84s-6.54-10-13.78-8L20.49,3.86a1.18,1.18,0,0,1-1-.39C14.19-1.82,7.54-.46,3.54,3.54s-5.36,10.65-.07,16L12,28Zm1.43-1.44L4.9,18.06C.55,13.71,1.66,8.24,5,5s8.76-4.4,13.11,0a3.09,3.09,0,0,0,3,.93L32.66,2.71c6-1.6,10.13,2.1,11.33,6.6s-.56,9.78-6.51,11.37a3.07,3.07,0,0,0-2.28,2.1L32.08,34.43c-1.6,5.94-6.89,7.71-11.38,6.51s-8.19-5.38-6.6-11.33A3.05,3.05,0,0,0,13.42,26.59Z"/><path class="cls-5" d="M68.62,7.41v5.06h-6v1.84h4.83v4.6H62.64v4.6h-6V7.41Z"/><path class="cls-5" d="M87.48,15.46a7.66,7.66,0,0,1-.66,3.17A7.82,7.82,0,0,1,85,21.2a8.52,8.52,0,0,1-2.84,1.71,11,11,0,0,1-7.27,0A8.52,8.52,0,0,1,72,21.2a7.82,7.82,0,0,1-1.84-2.57,7.65,7.65,0,0,1-.65-3.17,7.67,7.67,0,0,1,.65-3.18A7.78,7.78,0,0,1,72,9.72,8.71,8.71,0,0,1,74.87,8a11,11,0,0,1,7.27,0A8.71,8.71,0,0,1,85,9.72a7.78,7.78,0,0,1,1.84,2.56A7.67,7.67,0,0,1,87.48,15.46Zm-6.44,0a2.3,2.3,0,0,0-.21-1,2.64,2.64,0,0,0-.55-.77,2.42,2.42,0,0,0-.81-.51,2.73,2.73,0,0,0-2,0A2.35,2.35,0,0,0,76,15.46a2.37,2.37,0,0,0,.73,1.75,2.57,2.57,0,0,0,.81.5,2.6,2.6,0,0,0,2,0,2.38,2.38,0,0,0,1.36-1.28A2.22,2.22,0,0,0,81,15.46Z"/><path class="cls-5" d="M103.12,7.41V12.7H98.75V23.51h-6V12.7H88.4V7.41Z"/><path class="cls-5" d="M110.94,18.91h6.9v4.6H105V7.41h12.42V12h-6.44v1.15h6v4.6h-6Z"/><path d="M55.37,32.88h1.82v.6H55.37v2.83h-.66V30.1h2.77v.58H55.37Z"/><path d="M58.6,31.66v.46a.93.93,0,0,1,.41-.4,1.13,1.13,0,0,1,.56-.14,1.67,1.67,0,0,1,.34,0v.59a1.65,1.65,0,0,0-.45-.08.82.82,0,0,0-.61.24.88.88,0,0,0-.23.64v3.3H58V31.66Z"/><path d="M61.29,30.11v.81h-.62v-.81Zm0,1.55v4.65h-.61V31.66Z"/><path d="M62.94,34.72a1.39,1.39,0,0,0,.21.87.74.74,0,0,0,.6.26c.49,0,.74-.31.74-.93v0h.6v0A1.49,1.49,0,0,1,64.73,36a1.3,1.3,0,0,1-1,.37c-.94,0-1.4-.55-1.4-1.65V33.22A1.8,1.8,0,0,1,62.69,32a1.26,1.26,0,0,1,1-.42,1.31,1.31,0,0,1,1,.42,1.8,1.8,0,0,1,.37,1.22v1H62.94Zm0-1.48v.46H64.5v-.48a1.27,1.27,0,0,0-.21-.83.7.7,0,0,0-.58-.26.68.68,0,0,0-.57.26A1.37,1.37,0,0,0,62.94,33.24Z"/><path d="M66.67,31.66v.42a1,1,0,0,1,.38-.36,1.19,1.19,0,0,1,1.41.22,1.55,1.55,0,0,1,.3,1v3.37h-.61V33a.89.89,0,0,0-.2-.62.7.7,0,0,0-.53-.22.72.72,0,0,0-.53.22.92.92,0,0,0-.2.62v3.34h-.61V31.66Z"/><path d="M69.74,34.8V33.17A1.74,1.74,0,0,1,70.08,32a1.12,1.12,0,0,1,.89-.4,1,1,0,0,1,.89.53v-2h.61v6.21h-.61v-.42a1,1,0,0,1-.89.49,1.11,1.11,0,0,1-.89-.39A1.76,1.76,0,0,1,69.74,34.8Zm2.12-.06V33.25c0-.74-.26-1.12-.78-1.12s-.73.37-.73,1.11v1.49a1.52,1.52,0,0,0,.19.85.61.61,0,0,0,.54.25.66.66,0,0,0,.58-.28A1.38,1.38,0,0,0,71.86,34.74Z"/><path d="M73.41,35.06V35H74v.05a.73.73,0,0,0,.22.58.8.8,0,0,0,.59.2.82.82,0,0,0,.56-.18.82.82,0,0,0,.07-1,1.25,1.25,0,0,0-.48-.32l-.59-.24a1.27,1.27,0,0,1-.89-1.22,1.22,1.22,0,0,1,.36-.92,1.38,1.38,0,0,1,1-.35,1.31,1.31,0,0,1,1,.36,1.23,1.23,0,0,1,.35.94V33h-.56v-.06a.9.9,0,0,0-.2-.61.74.74,0,0,0-.57-.21.71.71,0,0,0-.52.18.66.66,0,0,0-.2.51.68.68,0,0,0,.13.42,1,1,0,0,0,.44.32l.58.24a1.81,1.81,0,0,1,.72.48,1.14,1.14,0,0,1,.24.78,1.27,1.27,0,0,1-.38,1,1.4,1.4,0,0,1-1,.35,1.37,1.37,0,0,1-1-.35A1.31,1.31,0,0,1,73.41,35.06Z"/><path d="M78.51,34.8V33.17a1.64,1.64,0,0,1,.37-1.2,1.34,1.34,0,0,1,1-.39,1.31,1.31,0,0,1,1,.39,1.68,1.68,0,0,1,.37,1.2V34.8a1.68,1.68,0,0,1-.37,1.2,1.56,1.56,0,0,1-2,0A1.66,1.66,0,0,1,78.51,34.8Zm2.17-.07V33.24a1.44,1.44,0,0,0-.2-.85.68.68,0,0,0-.58-.26.71.71,0,0,0-.58.26,1.39,1.39,0,0,0-.2.85v1.49a1.41,1.41,0,0,0,.2.85.7.7,0,0,0,.58.25.68.68,0,0,0,.58-.25A1.44,1.44,0,0,0,80.68,34.73Z"/><path d="M83.39,31.23v.43h.8v.47h-.8v4.18h-.62V32.13h-.55v-.47h.55v-.35a1.25,1.25,0,0,1,.3-.9A1.18,1.18,0,0,1,84,30.1h.24v.49H84a.64.64,0,0,0-.48.15A.68.68,0,0,0,83.39,31.23Z"/><path d="M87.48,35.06a.78.78,0,0,0,.17.54.74.74,0,0,0,.52.17h.13v.54h-.15c-.86,0-1.28-.41-1.28-1.22v-3h-.6v-.47h.6v-1l.61-.27v1.25h.89v.47h-.89Z"/><path d="M89.87,30.1v2a1,1,0,0,1,.39-.35,1.14,1.14,0,0,1,.51-.13,1.08,1.08,0,0,1,.87.36,1.51,1.51,0,0,1,.31,1v3.37h-.62V33a.84.84,0,0,0-.2-.62.74.74,0,0,0-1,0,.85.85,0,0,0-.21.62v3.34h-.61V30.1Z"/><path d="M93.54,34.72a1.39,1.39,0,0,0,.21.87.74.74,0,0,0,.6.26c.49,0,.73-.31.73-.93v0h.61v0A1.49,1.49,0,0,1,95.33,36a1.3,1.3,0,0,1-1,.37q-1.41,0-1.41-1.65V33.22A1.8,1.8,0,0,1,93.29,32a1.26,1.26,0,0,1,1-.42,1.3,1.3,0,0,1,1,.42,1.75,1.75,0,0,1,.38,1.22v1H93.54Zm0-1.48v.46h1.55v-.48a1.28,1.28,0,0,0-.2-.83.7.7,0,0,0-.58-.26.68.68,0,0,0-.57.26A1.37,1.37,0,0,0,93.54,33.24Z"/><path d="M98.91,32.85h1.82v.6H98.91v2.28H101v.58H98.26V30.1H101v.58H98.91Z"/><path d="M101.88,35.08v-5h.62v4.95c0,.47.21.71.64.71h.14v.55h-.16a1.11,1.11,0,0,1-1.24-1.23Z"/><path d="M103.9,34.8V33.17a1.8,1.8,0,0,1,.34-1.19,1.13,1.13,0,0,1,.89-.4,1,1,0,0,1,.89.53v-2h.61v6.21H106v-.42a1,1,0,0,1-.89.49,1.12,1.12,0,0,1-.89-.39A1.82,1.82,0,0,1,103.9,34.8Zm2.12-.06V33.25c0-.74-.26-1.12-.77-1.12s-.73.37-.73,1.11v1.49a1.53,1.53,0,0,0,.18.85.63.63,0,0,0,.55.25.64.64,0,0,0,.57-.28A1.38,1.38,0,0,0,106,34.74Z"/><path d="M108.22,34.72a1.32,1.32,0,0,0,.22.87.73.73,0,0,0,.59.26c.5,0,.74-.31.74-.93v0h.61v0A1.49,1.49,0,0,1,110,36a1.31,1.31,0,0,1-1,.37q-1.41,0-1.41-1.65V33.22A1.75,1.75,0,0,1,108,32a1.26,1.26,0,0,1,1-.42,1.3,1.3,0,0,1,1,.42,1.75,1.75,0,0,1,.37,1.22v1h-2.16Zm0-1.48v.46h1.56v-.48a1.34,1.34,0,0,0-.2-.83.71.71,0,0,0-.58-.26.7.7,0,0,0-.58.26A1.44,1.44,0,0,0,108.22,33.24Z"/><path d="M112,31.66v.46a1,1,0,0,1,.4-.4,1.2,1.2,0,0,1,.57-.14,1.49,1.49,0,0,1,.33,0v.59a1.53,1.53,0,0,0-.45-.08.81.81,0,0,0-.6.24A.88.88,0,0,0,112,33v3.3h-.62V31.66Z"/><path d="M114,35.08v-5h.62v4.95c0,.47.21.71.64.71h.13v.55h-.15a1.29,1.29,0,0,1-.93-.31A1.25,1.25,0,0,1,114,35.08Z"/><path d="M117.12,36.75a1.25,1.25,0,0,1-.46.74,1.65,1.65,0,0,1-.89.21h-.09v-.55h.15a.94.94,0,0,0,.54-.14.72.72,0,0,0,.26-.45l0-.14-1.26-4.76h.66l.88,3.55.86-3.55h.67Z"/></g></g></svg>